#Comment line ignore any data following # character 
#Hierarchical Translation and Rotation (.htr) file 
[Header]	
#Header keywords are followed by a single value 
FileType HTR		#Single word string
DataType HTRS		#Translation followed by rotation and scale data
FileVersion 1		#integer
NumSegments 84		#integer
NumFrames 2		#integer
DataFrameRate 30		#integer, data frame rate in this file
EulerRotationOrder ZYX
CalibrationUnits mm
RotationUnits Degrees
GlobalAxisofGravity Y
BoneLengthAxis Y
ScaleFactor 1.00
[SegmentNames&Hierarchy]
#CHILD	PARENT
MASTER GLOBAL
root MASTER
chest root
L_mid_tent01 root
R_mid_tent01 root
spine01 root
Bip01_Neck chest
L_humerus chest
R_humerus chest
weapon_bone chest
Bip01_Head Bip01_Neck
eye_left_bone Bip01_Head
eye_right_bone Bip01_Head
L_forearm L_humerus
L_front_hand L_forearm
L_weapon_bone L_forearm
L_front_hand01_01 L_front_hand
L_front_hand02_01 L_front_hand
L_front_hand03_01 L_front_hand
L_front_hand01_02 L_front_hand01_01
L_front_hand02_02 L_front_hand02_01
L_front_hand03_02 L_front_hand03_01
R_forearm R_humerus
R_front_hand R_forearm
R_weapon_bone R_forearm
R_front_hand01_01 R_front_hand
R_front_hand02_01 R_front_hand
R_front_hand03_01 R_front_hand
R_front_hand01_02 R_front_hand01_01
R_front_hand02_02 R_front_hand02_01
R_front_hand03_02 R_front_hand03_01
null_rope01_connect L_mid_tent01
Rope1_Seg01 null_rope01_connect
Rope1_Seg02 Rope1_Seg01
Rope1_Seg03 Rope1_Seg02
Rope1_Seg04 Rope1_Seg03
Rope1_Seg05 Rope1_Seg04
Rope1_Seg06 Rope1_Seg05
Rope1_Seg07 Rope1_Seg06
Rope1_Seg09 Rope1_Seg07
L_mid_hand01 Rope1_Seg09
L_mid_hand02 Rope1_Seg09
L_mid_hand03 Rope1_Seg09
null_rope02_connect R_mid_tent01
Rope2_Seg01 null_rope02_connect
Rope2_Seg02 Rope2_Seg01
Rope2_Seg03 Rope2_Seg02
Rope2_Seg04 Rope2_Seg03
Rope2_Seg05 Rope2_Seg04
Rope2_Seg06 Rope2_Seg05
Rope2_Seg07 Rope2_Seg06
Rope2_Seg09 Rope2_Seg07
R_mid_hand01 Rope2_Seg09
R_mid_hand02 Rope2_Seg09
R_mid_hand03 Rope2_Seg09
spine02 spine01
spine03 spine02
pelvis spine03
null_rope03_connect pelvis
null_rope04_connect pelvis
Rope3_Seg01 null_rope03_connect
Rope3_Seg02 Rope3_Seg01
Rope3_Seg03 Rope3_Seg02
Rope3_Seg04 Rope3_Seg03
Rope3_Seg05 Rope3_Seg04
Rope3_Seg06 Rope3_Seg05
Rope3_Seg07 Rope3_Seg06
Rope3_Seg08 Rope3_Seg07
Rope3_Seg09 Rope3_Seg08
R_rear_hand01 Rope3_Seg09
R_rear_hand02 Rope3_Seg09
R_rear_hand03 Rope3_Seg09
Rope4_Seg01 null_rope04_connect
Rope4_Seg02 Rope4_Seg01
Rope4_Seg03 Rope4_Seg02
Rope4_Seg04 Rope4_Seg03
Rope4_Seg05 Rope4_Seg04
Rope4_Seg06 Rope4_Seg05
Rope4_Seg07 Rope4_Seg06
Rope4_Seg08 Rope4_Seg07
Rope4_Seg09 Rope4_Seg08
L_rear_hand01 Rope4_Seg09
L_rear_hand02 Rope4_Seg09
L_rear_hand03 Rope4_Seg09
[BasePosition]
#SegmentName Tx, Ty, Tz, Rx, Ry, Rz, BoneLength
MASTER 0.000000 0.000000 0.000000 -90.000000 0.000000 0.000000 10.000000 
root 0.000000 0.000000 0.000000 0.000000 0.000000 0.000000 10.000000 
chest 0.000000 0.000000 0.000000 0.000000 0.000000 0.000000 10.000000 
L_mid_tent01 0.000000 0.000000 0.000000 0.000000 0.000000 0.000000 10.000000 
R_mid_tent01 0.000000 0.000000 0.000000 0.000000 0.000000 0.000000 10.000000 
spine01 0.000000 0.000000 0.000000 0.000000 0.000000 0.000000 10.000000 
Bip01_Neck 0.000000 0.000000 0.000000 0.000000 0.000000 0.000000 10.000000 
L_humerus 0.000000 0.000000 0.000000 0.000000 0.000000 0.000000 10.000000 
R_humerus 0.000000 0.000000 0.000000 0.000000 0.000000 0.000000 10.000000 
weapon_bone 0.000000 0.000000 0.000000 0.000000 0.000000 0.000000 10.000000 
Bip01_Head 0.000000 0.000000 0.000000 0.000000 0.000000 0.000000 10.000000 
eye_left_bone 0.000000 0.000000 0.000000 0.000000 0.000000 0.000000 10.000000 
eye_right_bone 0.000000 0.000000 0.000000 0.000000 0.000000 0.000000 10.000000 
L_forearm 0.000000 0.000000 0.000000 0.000000 0.000000 0.000000 10.000000 
L_front_hand 0.000000 0.000000 0.000000 0.000000 0.000000 0.000000 10.000000 
L_weapon_bone 0.000000 0.000000 0.000000 0.000000 0.000000 0.000000 10.000000 
L_front_hand01_01 0.000000 0.000000 0.000000 0.000000 0.000000 0.000000 10.000000 
L_front_hand02_01 0.000000 0.000000 0.000000 0.000000 0.000000 0.000000 10.000000 
L_front_hand03_01 0.000000 0.000000 0.000000 0.000000 0.000000 0.000000 10.000000 
L_front_hand01_02 0.000000 0.000000 0.000000 0.000000 0.000000 0.000000 10.000000 
L_front_hand02_02 0.000000 0.000000 0.000000 0.000000 0.000000 0.000000 10.000000 
L_front_hand03_02 0.000000 0.000000 0.000000 0.000000 0.000000 0.000000 10.000000 
R_forearm 0.000000 0.000000 0.000000 0.000000 0.000000 0.000000 10.000000 
R_front_hand 0.000000 0.000000 0.000000 0.000000 0.000000 0.000000 10.000000 
R_weapon_bone 0.000000 0.000000 0.000000 0.000000 0.000000 0.000000 10.000000 
R_front_hand01_01 0.000000 0.000000 0.000000 0.000000 0.000000 0.000000 10.000000 
R_front_hand02_01 0.000000 0.000000 0.000000 0.000000 0.000000 0.000000 10.000000 
R_front_hand03_01 0.000000 0.000000 0.000000 0.000000 0.000000 0.000000 10.000000 
R_front_hand01_02 0.000000 0.000000 0.000000 0.000000 0.000000 0.000000 10.000000 
R_front_hand02_02 0.000000 0.000000 0.000000 0.000000 0.000000 0.000000 10.000000 
R_front_hand03_02 0.000000 0.000000 0.000000 0.000000 0.000000 0.000000 10.000000 
null_rope01_connect 0.000000 0.000000 0.000000 0.000000 0.000000 0.000000 10.000000 
Rope1_Seg01 0.000000 0.000000 0.000000 0.000000 0.000000 0.000000 10.000000 
Rope1_Seg02 0.000000 0.000000 0.000000 0.000000 0.000000 0.000000 10.000000 
Rope1_Seg03 0.000000 0.000000 0.000000 0.000000 0.000000 0.000000 10.000000 
Rope1_Seg04 0.000000 0.000000 0.000000 0.000000 0.000000 0.000000 10.000000 
Rope1_Seg05 0.000000 0.000000 0.000000 0.000000 0.000000 0.000000 10.000000 
Rope1_Seg06 0.000000 0.000000 0.000000 0.000000 0.000000 0.000000 10.000000 
Rope1_Seg07 0.000000 0.000000 0.000000 0.000000 0.000000 0.000000 10.000000 
Rope1_Seg09 0.000000 0.000000 0.000000 0.000000 0.000000 0.000000 10.000000 
L_mid_hand01 0.000000 0.000000 0.000000 0.000000 0.000000 0.000000 10.000000 
L_mid_hand02 0.000000 0.000000 0.000000 0.000000 0.000000 0.000000 10.000000 
L_mid_hand03 0.000000 0.000000 0.000000 0.000000 0.000000 0.000000 10.000000 
null_rope02_connect 0.000000 0.000000 0.000000 0.000000 0.000000 0.000000 10.000000 
Rope2_Seg01 0.000000 0.000000 0.000000 0.000000 0.000000 0.000000 10.000000 
Rope2_Seg02 0.000000 0.000000 0.000000 0.000000 0.000000 0.000000 10.000000 
Rope2_Seg03 0.000000 0.000000 0.000000 0.000000 0.000000 0.000000 10.000000 
Rope2_Seg04 0.000000 0.000000 0.000000 0.000000 0.000000 0.000000 10.000000 
Rope2_Seg05 0.000000 0.000000 0.000000 0.000000 0.000000 0.000000 10.000000 
Rope2_Seg06 0.000000 0.000000 0.000000 0.000000 0.000000 0.000000 10.000000 
Rope2_Seg07 0.000000 0.000000 0.000000 0.000000 0.000000 0.000000 10.000000 
Rope2_Seg09 0.000000 0.000000 0.000000 0.000000 0.000000 0.000000 10.000000 
R_mid_hand01 0.000000 0.000000 0.000000 0.000000 0.000000 0.000000 10.000000 
R_mid_hand02 0.000000 0.000000 0.000000 0.000000 0.000000 0.000000 10.000000 
R_mid_hand03 0.000000 0.000000 0.000000 0.000000 0.000000 0.000000 10.000000 
spine02 0.000000 0.000000 0.000000 0.000000 0.000000 0.000000 10.000000 
spine03 0.000000 0.000000 0.000000 0.000000 0.000000 0.000000 10.000000 
pelvis 0.000000 0.000000 0.000000 0.000000 0.000000 0.000000 10.000000 
null_rope03_connect 0.000000 0.000000 0.000000 0.000000 0.000000 0.000000 10.000000 
null_rope04_connect 0.000000 0.000000 0.000000 0.000000 0.000000 0.000000 10.000000 
Rope3_Seg01 0.000000 0.000000 0.000000 0.000000 0.000000 0.000000 10.000000 
Rope3_Seg02 0.000000 0.000000 0.000000 0.000000 0.000000 0.000000 10.000000 
Rope3_Seg03 0.000000 0.000000 0.000000 0.000000 0.000000 0.000000 10.000000 
Rope3_Seg04 0.000000 0.000000 0.000000 0.000000 0.000000 0.000000 10.000000 
Rope3_Seg05 0.000000 0.000000 0.000000 0.000000 0.000000 0.000000 10.000000 
Rope3_Seg06 0.000000 0.000000 0.000000 0.000000 0.000000 0.000000 10.000000 
Rope3_Seg07 0.000000 0.000000 0.000000 0.000000 0.000000 0.000000 10.000000 
Rope3_Seg08 0.000000 0.000000 0.000000 0.000000 0.000000 0.000000 10.000000 
Rope3_Seg09 0.000000 0.000000 0.000000 0.000000 0.000000 0.000000 10.000000 
R_rear_hand01 0.000000 0.000000 0.000000 0.000000 0.000000 0.000000 10.000000 
R_rear_hand02 0.000000 0.000000 0.000000 0.000000 0.000000 0.000000 10.000000 
R_rear_hand03 0.000000 0.000000 0.000000 0.000000 0.000000 0.000000 10.000000 
Rope4_Seg01 0.000000 0.000000 0.000000 0.000000 0.000000 0.000000 10.000000 
Rope4_Seg02 0.000000 0.000000 0.000000 0.000000 0.000000 0.000000 10.000000 
Rope4_Seg03 0.000000 0.000000 0.000000 0.000000 0.000000 0.000000 10.000000 
Rope4_Seg04 0.000000 0.000000 0.000000 0.000000 0.000000 0.000000 10.000000 
Rope4_Seg05 0.000000 0.000000 0.000000 0.000000 0.000000 0.000000 10.000000 
Rope4_Seg06 0.000000 0.000000 0.000000 0.000000 0.000000 0.000000 10.000000 
Rope4_Seg07 0.000000 0.000000 0.000000 0.000000 0.000000 0.000000 10.000000 
Rope4_Seg08 0.000000 0.000000 0.000000 0.000000 0.000000 0.000000 10.000000 
Rope4_Seg09 0.000000 0.000000 0.000000 0.000000 0.000000 0.000000 10.000000 
L_rear_hand01 0.000000 0.000000 0.000000 0.000000 0.000000 0.000000 10.000000 
L_rear_hand02 0.000000 0.000000 0.000000 0.000000 0.000000 0.000000 10.000000 
L_rear_hand03 0.000000 0.000000 0.000000 0.000000 0.000000 0.000000 10.000000 
#Beginning of Data. Separated by tabs
#Fr	Tx	Ty	Tz	Rx	Ry	Rz	SF
[MASTER]
9 -895.971985 1557.044189 -278.809723 0.001660 0.001660 0.001660 1817.934937
10 -978.747131 1827.297974 -326.930450 0.001660 0.001660 0.001660 2098.534424
[root]
9 174.405807 -208.142700 585.178406 -38.404430 2.364309 -74.980171 645.115967
10 156.036987 -228.679657 586.820496 -44.022404 1.548693 -72.799767 648.845276
[chest]
9 -84.512650 -34.090519 0.000000 22.829844 4.361228 167.758575 91.129311
10 -84.512650 -34.090519 0.000000 19.055208 0.439759 166.030396 91.129311
[L_mid_tent01]
9 27.299021 22.179260 -249.918762 -18.474133 7.049500 25.229820 252.381729
10 27.299032 22.179249 -249.918762 -18.834249 7.420629 24.112930 252.381729
[R_mid_tent01]
9 23.228794 24.509907 226.238495 153.818573 -12.141452 3.263876 228.744751
10 23.228794 24.509907 226.238495 153.762924 -5.822729 2.081780 228.744751
[spine01]
9 -0.361383 -0.195265 0.000000 0.001694 0.001625 2.400495 0.410763
10 -0.361383 -0.195265 0.000000 0.001690 0.001629 2.123484 0.410763
[Bip01_Neck]
9 165.484543 71.581718 0.000119 176.643677 -1.657967 43.431915 180.302734
10 165.484543 71.581718 0.000119 176.643677 -1.657967 43.431911 180.302734
[L_humerus]
9 -13.983130 -135.272980 -120.471481 -179.444061 -16.576633 -149.793564 181.680161
10 -13.983130 -135.272980 -120.471481 179.242706 -14.469413 -149.430313 181.680161
[R_humerus]
9 -13.983309 -135.273102 125.287651 173.176529 13.987879 -150.461487 184.909012
10 -13.983309 -135.273102 125.287651 174.191620 12.083443 -151.703171 184.909012
[weapon_bone]
9 235.964890 -300.705902 0.000000 0.000000 -89.951546 -128.212341 382.234833
10 235.964890 -300.705902 0.000000 0.000000 -89.951546 -128.212341 382.234833
[Bip01_Head]
9 213.368683 185.925568 9.065814 -2.669309 1.796125 -40.485382 283.154907
10 213.375137 185.907516 9.299024 -3.711798 1.986585 -40.910301 283.155487
[eye_left_bone]
9 -24.626970 125.451866 -64.772606 0.000000 -90.000000 -99.840431 143.318359
10 -24.626970 125.451866 -64.772606 0.000000 -90.000000 -99.840431 143.318359
[eye_right_bone]
9 -24.626970 125.451866 64.327362 0.000000 -89.965736 80.156380 143.117676
10 -24.626970 125.451866 64.327362 0.000000 -89.965736 80.156380 143.117676
[L_forearm]
9 322.776093 0.000000 -0.000119 0.000419 -0.002310 -110.555130 322.776093
10 322.776093 0.000000 -0.000119 0.000417 -0.002310 -110.452606 322.776093
[L_front_hand]
9 241.149185 -0.042021 -3.300071 -178.667953 -1.835447 -27.422350 241.171753
10 241.149185 -0.042021 -3.300071 -178.667953 -1.835447 -27.422350 241.171753
[L_weapon_bone]
9 156.183838 0.000000 0.000000 0.000014 0.000007 0.000001 156.183838
10 156.183838 0.000000 0.000000 0.000014 0.000007 0.000001 156.183838
[L_front_hand01_01]
9 86.095154 20.947098 -0.655860 -0.366594 -0.477154 75.385574 88.609184
10 86.095154 20.947098 -0.655860 -0.366594 -0.477154 75.385574 88.609184
[L_front_hand02_01]
9 86.935165 -11.437475 24.513514 154.399796 -59.883835 -61.369587 91.046425
10 86.935165 -11.437475 24.513514 154.399796 -59.883835 -61.369587 91.046425
[L_front_hand03_01]
9 86.637497 -14.123976 -20.424902 -153.913849 58.118122 -62.702866 90.126129
10 86.637497 -14.123976 -20.424902 -153.913849 58.118122 -62.702866 90.126129
[L_front_hand01_02]
9 71.020905 -0.000179 0.000030 0.000332 -0.002324 -106.268463 71.020905
10 71.020905 -0.000179 0.000030 0.000333 -0.002323 -106.330261 71.020905
[L_front_hand02_02]
9 71.020927 -0.000119 0.000060 0.000332 -0.002324 -106.268463 71.020927
10 71.020927 -0.000119 0.000060 0.000333 -0.002323 -106.330261 71.020927
[L_front_hand03_02]
9 71.020905 -0.000060 0.000060 0.000332 -0.002324 -106.268463 71.020905
10 71.020905 -0.000060 0.000060 0.000333 -0.002323 -106.330261 71.020905
[R_forearm]
9 322.776428 -0.000060 0.000030 0.201445 0.067167 -109.203690 322.776428
10 322.776428 -0.000060 0.000030 0.201505 0.066988 -109.101738 322.776428
[R_front_hand]
9 238.847015 -0.006795 2.210259 -2.635298 -10.645461 -26.312504 238.857239
10 238.847015 -0.006795 2.210259 -2.635298 -10.645461 -26.312506 238.857239
[R_weapon_bone]
9 155.664093 0.002503 -0.000030 0.003487 0.001180 -90.988930 155.664078
10 155.664093 0.002503 -0.000030 0.003487 0.001180 -90.988930 155.664078
[R_front_hand01_01]
9 87.624611 14.231146 22.918642 -154.633499 -59.950619 61.746044 91.683487
10 87.624611 14.231146 22.918642 -154.633499 -59.950619 61.746044 91.683487
[R_front_hand02_01]
9 89.356956 14.367283 -19.491137 154.602661 58.302849 63.744389 92.579636
10 89.356956 14.367283 -19.491137 154.602661 58.302849 63.744389 92.579636
[R_front_hand03_01]
9 87.286232 -22.307278 -0.143439 0.162155 -0.423168 -75.767921 90.091743
10 87.286232 -22.307278 -0.143439 0.162155 -0.423168 -75.767921 90.091743
[R_front_hand01_02]
9 71.020905 0.000060 0.000119 0.002323 -0.000334 106.381714 71.020905
10 71.020905 0.000060 0.000119 0.002323 -0.000334 106.381714 71.020905
[R_front_hand02_02]
9 71.020844 -0.000030 -0.000119 0.002323 -0.000334 106.381714 71.020836
10 71.020844 -0.000030 -0.000119 0.002323 -0.000334 106.381714 71.020836
[R_front_hand03_02]
9 71.020905 0.000000 0.000030 0.002323 -0.000334 106.381714 71.020905
10 71.020905 0.000000 0.000030 0.002323 -0.000334 106.381714 71.020905
[null_rope01_connect]
9 328.732483 0.000000 -0.000238 23.253563 -54.806717 34.457550 328.732483
10 328.732483 0.000000 -0.000238 32.191856 -59.008274 27.412766 328.732483
[Rope1_Seg01]
9 0.000002 -0.000057 0.000053 109.589577 -2.982422 -69.675537 0.000078
10 0.000007 -0.000056 0.000060 114.867378 -9.842940 -67.084465 0.000082
[Rope1_Seg02]
9 139.999863 -0.000179 0.000000 -0.512038 -0.081706 -0.947569 139.999863
10 139.999863 -0.000179 0.000000 -1.268276 -1.817963 -0.393735 139.999863
[Rope1_Seg03]
9 139.999924 0.000060 -0.000060 -2.816163 -1.985708 -3.918550 139.999924
10 139.999924 0.000060 -0.000060 -3.578460 -4.524310 -1.486179 139.999924
[Rope1_Seg04]
9 139.999924 -0.000060 -0.000119 5.006794 4.270157 5.431441 139.999924
10 139.999924 -0.000060 -0.000119 -0.410687 -0.853074 0.247068 139.999924
[Rope1_Seg05]
9 139.999832 0.000119 -0.000060 3.946311 3.360197 4.148198 139.999832
10 139.999832 0.000119 -0.000060 6.434427 6.822612 3.666119 139.999832
[Rope1_Seg06]
9 139.999954 0.000119 -0.000060 1.326478 1.253101 1.282451 139.999954
10 139.999954 0.000119 -0.000060 1.452721 1.772834 0.751307 139.999954
[Rope1_Seg07]
9 139.999985 0.000060 0.000000 0.808089 0.777737 0.763876 139.999985
10 139.999985 0.000060 0.000000 0.781491 0.978290 0.389172 139.999985
[Rope1_Seg09]
9 121.602913 0.000119 -0.000089 -89.793175 -1.359789 0.847147 121.602913
10 121.602913 0.000119 -0.000089 -89.793175 -1.359789 0.847147 121.602913
[L_mid_hand01]
9 103.859421 1.038730 8.195221 130.544373 -67.584534 -38.866943 104.187431
10 103.859421 1.038730 8.195221 130.544388 -67.584534 -38.866955 104.187431
[L_mid_hand02]
9 105.572853 -4.139662 -10.864139 -168.923172 43.409309 -73.498886 106.211075
10 105.572853 -4.139662 -10.864139 -168.923172 43.409309 -73.498886 106.211075
[L_mid_hand03]
9 104.641464 17.579376 -3.913581 -6.012627 17.808174 74.893669 106.179977
10 104.641464 17.579376 -3.913581 -6.012627 17.808174 74.893669 106.179977
[null_rope02_connect]
9 328.732849 0.000179 -0.000119 -135.751541 53.207619 -45.134960 328.732849
10 328.732849 0.000179 -0.000119 -132.548767 59.841808 -39.715813 328.732849
[Rope2_Seg01]
9 0.000037 0.000206 0.000000 -32.220100 -2.765033 -69.233849 0.000209
10 0.000035 0.000212 0.000000 -33.802052 -0.175895 -75.422249 0.000215
[Rope2_Seg02]
9 139.999741 -0.000060 -0.000119 -12.744869 -9.345211 -2.138182 139.999756
10 139.999741 -0.000060 -0.000119 -5.100939 -7.481777 -0.061486 139.999756
[Rope2_Seg03]
9 140.000107 0.000030 0.000000 -6.615809 -1.729510 -2.346080 140.000107
10 140.000107 0.000030 0.000000 -0.764948 -1.066656 -0.001110 140.000107
[Rope2_Seg04]
9 139.999802 0.000000 -0.000060 -8.451781 -3.686644 -1.914091 139.999802
10 139.999802 0.000000 -0.000060 -1.524389 -1.652591 -0.164329 139.999802
[Rope2_Seg05]
9 139.999985 -0.000060 0.000119 -22.585327 -8.392894 -3.200315 139.999985
10 139.999985 -0.000060 0.000119 -8.823992 -6.721880 -1.133801 139.999985
[Rope2_Seg06]
9 139.999893 -0.000030 -0.000119 -28.394314 -5.741306 -5.193257 139.999893
10 139.999893 -0.000030 -0.000119 -22.524200 -9.488101 -3.226610 139.999893
[Rope2_Seg07]
9 139.999893 0.000060 -0.000060 -13.852478 -1.119841 -3.609625 139.999893
10 139.999893 0.000060 -0.000060 -20.567816 -4.579483 -4.037791 139.999893
[Rope2_Seg09]
9 121.338966 0.000089 -0.000060 33.793236 -1.359788 -0.847141 121.338966
10 121.338966 0.000089 -0.000060 33.793236 -1.359788 -0.847141 121.338966
[R_mid_hand01]
9 104.680779 11.144459 -10.335981 -21.917124 43.208534 62.288170 105.778534
10 104.680779 11.144459 -10.335981 -19.035425 44.336292 66.455589 105.778534
[R_mid_hand02]
9 104.070427 2.443552 8.231699 57.164165 -62.784119 30.389168 104.424065
10 104.070427 2.443552 8.231699 53.394081 -65.425781 34.575901 104.424065
[R_mid_hand03]
9 106.028137 -11.221827 -5.996406 -175.400940 15.144097 -70.171669 106.788818
10 106.028137 -11.221827 -5.996406 -176.276184 15.379540 -73.491829 106.788818
[spine02]
9 129.756927 0.001550 0.000119 0.471768 -4.032389 -14.550382 129.756927
10 129.756927 0.001550 0.000119 0.461632 -4.033629 -14.401849 129.756927
[spine03]
9 78.613899 0.081146 -4.898958 1.967296 3.794293 17.556646 78.766434
10 78.613876 0.081179 -4.898951 1.962597 3.796801 17.484406 78.766411
[pelvis]
9 169.435242 0.051022 0.000000 0.010197 -0.190981 -8.081374 169.435257
10 169.435242 0.051022 0.000000 0.016829 -0.190490 -9.103066 169.435257
[null_rope03_connect]
9 -1.257226 -2.466202 137.391083 9.232344 -36.231606 73.736214 137.418976
10 -1.257226 -2.466202 137.391083 14.275928 -40.821178 70.645576 137.418976
[null_rope04_connect]
9 -1.259640 -2.480268 -137.844437 9.232344 -36.231606 73.736214 137.872513
10 -1.259640 -2.480268 -137.844437 14.275928 -40.821178 70.645576 137.872513
[Rope3_Seg01]
9 0.000000 0.000000 0.000000 15.992948 15.267554 -83.769341 0.000000
10 0.000000 0.000000 0.000000 16.227016 19.053978 -82.887413 0.000000
[Rope3_Seg02]
9 139.999924 -0.000119 0.000060 -0.382214 -4.449443 8.333933 139.999924
10 139.999924 -0.000119 0.000060 -0.617238 -7.780899 6.829028 139.999924
[Rope3_Seg03]
9 139.999924 -0.000119 0.000119 -0.504368 -2.677708 5.541488 139.999924
10 139.999924 -0.000119 0.000119 -0.510967 -5.691153 5.025054 139.999924
[Rope3_Seg04]
9 139.999924 0.000119 0.000000 -0.489920 -1.645738 3.560667 139.999924
10 139.999924 0.000119 0.000000 -0.495016 -4.312688 3.851721 139.999924
[Rope3_Seg05]
9 139.999924 -0.000238 0.000060 -0.207569 -1.573403 1.547760 139.999924
10 139.999924 -0.000238 0.000060 0.014792 -1.368505 0.970918 139.999924
[Rope3_Seg06]
9 139.999893 -0.000119 -0.000060 0.056612 -2.298636 0.712849 139.999893
10 139.999893 -0.000119 -0.000060 0.476130 0.574829 -1.054368 139.999893
[Rope3_Seg07]
9 139.999771 0.000060 -0.000119 0.053112 -2.719558 1.375723 139.999771
10 139.999771 0.000060 -0.000119 0.547435 0.372393 -0.990676 139.999771
[Rope3_Seg08]
9 139.999985 -0.000060 0.000000 0.112302 -2.527462 1.488241 139.999985
10 139.999985 -0.000060 0.000000 0.541337 -0.169552 -0.399744 139.999985
[Rope3_Seg09]
9 90.185997 -0.000179 -0.000060 89.793228 -1.359877 -0.847183 90.185997
10 90.185997 -0.000179 -0.000060 89.793228 -1.359877 -0.847183 90.185997
[R_rear_hand01]
9 103.366196 -6.073594 -10.757982 -175.114853 24.208794 -67.632149 104.101845
10 103.366196 -6.073594 -10.757982 -176.465668 24.425859 -70.909309 104.101845
[R_rear_hand02]
9 100.509819 12.039542 -7.992327 -16.923937 35.395069 65.303368 101.543350
10 100.509819 12.039542 -7.992327 -14.843726 36.213379 68.859123 101.543350
[R_rear_hand03]
9 101.539970 5.215704 5.435467 75.730560 -66.314240 16.974068 101.819031
10 101.539970 5.215704 5.435467 73.787918 -69.202950 19.069901 101.819031
[Rope4_Seg01]
9 -0.000026 -0.000131 0.000000 -61.253368 26.189869 -40.849052 0.000134
10 -0.000027 -0.000143 0.000000 -66.723358 23.630257 -45.032352 0.000145
[Rope4_Seg02]
9 139.999985 0.000060 0.000119 -11.779537 5.281075 -12.820738 139.999985
10 139.999985 0.000060 0.000119 -11.718903 5.352604 -12.925075 139.999985
[Rope4_Seg03]
9 139.999924 0.000000 -0.000238 -12.987020 8.798164 -14.014165 139.999924
10 139.999924 0.000000 -0.000238 -12.239013 8.510884 -13.356075 139.999924
[Rope4_Seg04]
9 139.999985 0.000000 0.000119 -7.979633 9.459042 -9.029243 139.999985
10 139.999985 0.000000 0.000119 -7.710673 8.985317 -8.855975 139.999985
[Rope4_Seg05]
9 139.999802 -0.000060 -0.000119 -0.138228 1.584642 0.256950 139.999802
10 139.999802 -0.000060 -0.000119 -0.453106 1.711719 -0.311780 139.999802
[Rope4_Seg06]
9 139.999924 0.000000 0.000060 -0.238061 1.163449 -0.228270 139.999924
10 139.999924 0.000000 0.000060 -0.288564 1.064096 -0.362074 139.999924
[Rope4_Seg07]
9 139.999802 0.000000 0.000000 -0.249243 1.029511 -0.401195 139.999802
10 139.999802 0.000000 0.000000 -0.284427 0.974765 -0.490402 139.999802
[Rope4_Seg08]
9 139.999924 0.000000 0.000119 -1.681322 0.636131 -0.245094 139.999924
10 139.999924 0.000000 0.000119 -1.701318 0.600663 -0.299088 139.999924
[Rope4_Seg09]
9 90.185791 0.000060 0.000060 -135.617828 2.228885 0.850567 90.185791
10 90.185791 0.000060 0.000060 -135.617828 2.228885 0.850567 90.185791
[L_rear_hand01]
9 101.696655 -8.392275 -7.654577 -13.149478 -36.780186 108.294930 102.329041
10 101.696655 -8.392275 -7.654577 -12.874829 -36.868488 107.832764 102.329041
[L_rear_hand02]
9 102.726799 -1.568258 5.773216 71.848549 71.457977 158.871384 102.900848
10 102.726799 -1.568258 5.773216 71.484581 71.816628 158.486160 102.900848
[L_rear_hand03]
9 104.552910 9.721220 -10.420293 -177.538498 -24.553135 -106.501045 105.519653
10 104.552910 9.721220 -10.420293 -177.714203 -24.565960 -106.089035 105.519653
